solid OpenSCAD_Model
  facet normal -1 0 -2.22045e-16
    outer loop
      vertex -3 0 1
      vertex -3 0.309017 0.951057
      vertex -3 -0.309017 0.951057
    endloop
  endfacet
  facet normal -1 0 -2.22045e-16
    outer loop
      vertex -3 -0.309017 0.951057
      vertex -3 0.309017 0.951057
      vertex -3 0.587785 0.809017
    endloop
  endfacet
  facet normal -1 0 -2.22045e-16
    outer loop
      vertex -3 -0.309017 0.951057
      vertex -3 0.587785 0.809017
      vertex -3 0.809017 0.587785
    endloop
  endfacet
  facet normal -1 0 -2.22045e-16
    outer loop
      vertex -3 -0.309017 0.951057
      vertex -3 0.809017 0.587785
      vertex -3 0.951057 0.309017
    endloop
  endfacet
  facet normal -1 0 -2.22045e-16
    outer loop
      vertex -3 -0.309017 0.951057
      vertex -3 0.951057 0.309017
      vertex -3 1 -6.66134e-16
    endloop
  endfacet
  facet normal -1 0 -2.22045e-16
    outer loop
      vertex -3 -0.309017 0.951057
      vertex -3 1 -6.66134e-16
      vertex -3 0.951057 -0.309017
    endloop
  endfacet
  facet normal -1 0 -2.22045e-16
    outer loop
      vertex -3 -0.309017 0.951057
      vertex -3 0.951057 -0.309017
      vertex -3 0.809017 -0.587785
    endloop
  endfacet
  facet normal -1 0 -2.22045e-16
    outer loop
      vertex -3 -0.309017 0.951057
      vertex -3 0.809017 -0.587785
      vertex -3 0.587785 -0.809017
    endloop
  endfacet
  facet normal -1 0 -2.22045e-16
    outer loop
      vertex -3 -0.309017 0.951057
      vertex -3 0.587785 -0.809017
      vertex -3 0.309017 -0.951057
    endloop
  endfacet
  facet normal -1 0 -2.22045e-16
    outer loop
      vertex -3 -0.309017 0.951057
      vertex -3 0.309017 -0.951057
      vertex -3 0 -1
    endloop
  endfacet
  facet normal -1 0 -2.22045e-16
    outer loop
      vertex -3 -0.309017 0.951057
      vertex -3 0 -1
      vertex -3 -0.309017 -0.951057
    endloop
  endfacet
  facet normal -1 0 -2.22045e-16
    outer loop
      vertex -3 -0.309017 0.951057
      vertex -3 -0.309017 -0.951057
      vertex -3 -0.587785 -0.809017
    endloop
  endfacet
  facet normal -1 0 -2.22045e-16
    outer loop
      vertex -3 -0.309017 0.951057
      vertex -3 -0.587785 -0.809017
      vertex -3 -0.809017 -0.587785
    endloop
  endfacet
  facet normal -1 0 -2.22045e-16
    outer loop
      vertex -3 -0.309017 0.951057
      vertex -3 -0.809017 -0.587785
      vertex -3 -0.951057 -0.309017
    endloop
  endfacet
  facet normal -1 0 -2.22045e-16
    outer loop
      vertex -3 -0.309017 0.951057
      vertex -3 -0.951057 -0.309017
      vertex -3 -1 -6.66134e-16
    endloop
  endfacet
  facet normal -1 0 -2.22045e-16
    outer loop
      vertex -3 -0.309017 0.951057
      vertex -3 -1 -6.66134e-16
      vertex -3 -0.951057 0.309017
    endloop
  endfacet
  facet normal -1 0 -2.22045e-16
    outer loop
      vertex -3 -0.309017 0.951057
      vertex -3 -0.951057 0.309017
      vertex -3 -0.809017 0.587785
    endloop
  endfacet
  facet normal -1 0 -2.22045e-16
    outer loop
      vertex -3 -0.309017 0.951057
      vertex -3 -0.809017 0.587785
      vertex -3 -0.587785 0.809017
    endloop
  endfacet
  facet normal -2.19311e-16 0.156433 0.987689
    outer loop
      vertex -3 0.309017 0.951057
      vertex -3 0 1
      vertex -1 0 1
    endloop
  endfacet
  facet normal -2.19311e-16 0.156433 0.987689
    outer loop
      vertex -0.951057 0.309017 0.951057
      vertex -3 0.309017 0.951057
      vertex -1 0 1
    endloop
  endfacet
  facet normal -2.19311e-16 -0.156433 0.987689
    outer loop
      vertex -1 0 1
      vertex -3 0 1
      vertex -3 -0.309017 0.951057
    endloop
  endfacet
  facet normal -2.19311e-16 -0.156433 0.987689
    outer loop
      vertex -0.951057 -0.309017 0.951057
      vertex -1 0 1
      vertex -3 -0.309017 0.951057
    endloop
  endfacet
  facet normal -1.97843e-16 -0.453992 0.891006
    outer loop
      vertex -0.951057 -0.309017 0.951057
      vertex -3 -0.309017 0.951057
      vertex -3 -0.587785 0.809017
    endloop
  endfacet
  facet normal -1.97843e-16 -0.453992 0.891006
    outer loop
      vertex -0.809017 -0.587785 0.809017
      vertex -0.951057 -0.309017 0.951057
      vertex -3 -0.587785 0.809017
    endloop
  endfacet
  facet normal -1.57009e-16 -0.707107 0.707107
    outer loop
      vertex -0.809017 -0.587785 0.809017
      vertex -3 -0.587785 0.809017
      vertex -3 -0.809017 0.587785
    endloop
  endfacet
  facet normal -1.57009e-16 -0.707107 0.707107
    outer loop
      vertex -0.587785 -0.809017 0.587785
      vertex -0.809017 -0.587785 0.809017
      vertex -3 -0.809017 0.587785
    endloop
  endfacet
  facet normal -1.00806e-16 -0.891006 0.453992
    outer loop
      vertex -0.587785 -0.809017 0.587785
      vertex -3 -0.809017 0.587785
      vertex -3 -0.951057 0.309017
    endloop
  endfacet
  facet normal -1.00806e-16 -0.891006 0.453992
    outer loop
      vertex -0.309017 -0.951057 0.309017
      vertex -0.587785 -0.809017 0.587785
      vertex -3 -0.951057 0.309017
    endloop
  endfacet
  facet normal -3.47351e-17 -0.987689 0.156433
    outer loop
      vertex -0.309017 -0.951057 0.309017
      vertex -3 -0.951057 0.309017
      vertex -3 -1 -6.66134e-16
    endloop
  endfacet
  facet normal -3.47351e-17 -0.987689 0.156433
    outer loop
      vertex 0 -1 0
      vertex -0.309017 -0.951057 0.309017
      vertex -3 -1 -6.66134e-16
    endloop
  endfacet
  facet normal 3.47351e-17 -0.987689 -0.156433
    outer loop
      vertex 0 -1 0
      vertex -3 -1 -6.66134e-16
      vertex -3 -0.951057 -0.309017
    endloop
  endfacet
  facet normal 3.47351e-17 -0.987689 -0.156433
    outer loop
      vertex -0.309017 -0.951057 -0.309017
      vertex 0 -1 0
      vertex -3 -0.951057 -0.309017
    endloop
  endfacet
  facet normal 1.00806e-16 -0.891006 -0.453992
    outer loop
      vertex -0.309017 -0.951057 -0.309017
      vertex -3 -0.951057 -0.309017
      vertex -3 -0.809017 -0.587785
    endloop
  endfacet
  facet normal 1.00806e-16 -0.891006 -0.453992
    outer loop
      vertex -0.587785 -0.809017 -0.587785
      vertex -0.309017 -0.951057 -0.309017
      vertex -3 -0.809017 -0.587785
    endloop
  endfacet
  facet normal 1.57009e-16 -0.707107 -0.707107
    outer loop
      vertex -0.587785 -0.809017 -0.587785
      vertex -3 -0.809017 -0.587785
      vertex -3 -0.587785 -0.809017
    endloop
  endfacet
  facet normal 1.57009e-16 -0.707107 -0.707107
    outer loop
      vertex -0.809017 -0.587785 -0.809017
      vertex -0.587785 -0.809017 -0.587785
      vertex -3 -0.587785 -0.809017
    endloop
  endfacet
  facet normal 1.97843e-16 -0.453992 -0.891006
    outer loop
      vertex -3 -0.587785 -0.809017
      vertex -3 -0.309017 -0.951057
      vertex -0.809017 -0.587785 -0.809017
    endloop
  endfacet
  facet normal 1.97843e-16 -0.453992 -0.891006
    outer loop
      vertex -0.809017 -0.587785 -0.809017
      vertex -3 -0.309017 -0.951057
      vertex -0.951057 -0.309017 -0.951057
    endloop
  endfacet
  facet normal 2.19311e-16 -0.156433 -0.987689
    outer loop
      vertex -3 -0.309017 -0.951057
      vertex -3 0 -1
      vertex -0.951057 -0.309017 -0.951057
    endloop
  endfacet
  facet normal 2.19311e-16 -0.156433 -0.987689
    outer loop
      vertex -0.951057 -0.309017 -0.951057
      vertex -3 0 -1
      vertex -1 0 -1
    endloop
  endfacet
  facet normal 2.19311e-16 0.156433 -0.987689
    outer loop
      vertex -3 0.309017 -0.951057
      vertex -0.951057 0.309017 -0.951057
      vertex -3 0 -1
    endloop
  endfacet
  facet normal 2.19311e-16 0.156433 -0.987689
    outer loop
      vertex -3 0 -1
      vertex -0.951057 0.309017 -0.951057
      vertex -1 0 -1
    endloop
  endfacet
  facet normal 1.97843e-16 0.453992 -0.891006
    outer loop
      vertex -3 0.587785 -0.809017
      vertex -0.809017 0.587785 -0.809017
      vertex -3 0.309017 -0.951057
    endloop
  endfacet
  facet normal 1.97843e-16 0.453992 -0.891006
    outer loop
      vertex -3 0.309017 -0.951057
      vertex -0.809017 0.587785 -0.809017
      vertex -0.951057 0.309017 -0.951057
    endloop
  endfacet
  facet normal 1.57009e-16 0.707107 -0.707107
    outer loop
      vertex -3 0.809017 -0.587785
      vertex -0.587785 0.809017 -0.587785
      vertex -3 0.587785 -0.809017
    endloop
  endfacet
  facet normal 1.57009e-16 0.707107 -0.707107
    outer loop
      vertex -3 0.587785 -0.809017
      vertex -0.587785 0.809017 -0.587785
      vertex -0.809017 0.587785 -0.809017
    endloop
  endfacet
  facet normal 1.00806e-16 0.891006 -0.453992
    outer loop
      vertex -3 0.951057 -0.309017
      vertex -0.309017 0.951057 -0.309017
      vertex -3 0.809017 -0.587785
    endloop
  endfacet
  facet normal 1.00806e-16 0.891006 -0.453992
    outer loop
      vertex -3 0.809017 -0.587785
      vertex -0.309017 0.951057 -0.309017
      vertex -0.587785 0.809017 -0.587785
    endloop
  endfacet
  facet normal 3.47351e-17 0.987689 -0.156433
    outer loop
      vertex -3 1 -6.66134e-16
      vertex 0 1 0
      vertex -3 0.951057 -0.309017
    endloop
  endfacet
  facet normal 3.47351e-17 0.987689 -0.156433
    outer loop
      vertex -3 0.951057 -0.309017
      vertex 0 1 0
      vertex -0.309017 0.951057 -0.309017
    endloop
  endfacet
  facet normal -3.47351e-17 0.987689 0.156433
    outer loop
      vertex -3 0.951057 0.309017
      vertex -0.309017 0.951057 0.309017
      vertex -3 1 -6.66134e-16
    endloop
  endfacet
  facet normal -3.47351e-17 0.987689 0.156433
    outer loop
      vertex -3 1 -6.66134e-16
      vertex -0.309017 0.951057 0.309017
      vertex 0 1 0
    endloop
  endfacet
  facet normal -1.00806e-16 0.891006 0.453992
    outer loop
      vertex -3 0.809017 0.587785
      vertex -0.587785 0.809017 0.587785
      vertex -3 0.951057 0.309017
    endloop
  endfacet
  facet normal -1.00806e-16 0.891006 0.453992
    outer loop
      vertex -3 0.951057 0.309017
      vertex -0.587785 0.809017 0.587785
      vertex -0.309017 0.951057 0.309017
    endloop
  endfacet
  facet normal -1.57009e-16 0.707107 0.707107
    outer loop
      vertex -3 0.587785 0.809017
      vertex -0.809017 0.587785 0.809017
      vertex -3 0.809017 0.587785
    endloop
  endfacet
  facet normal -1.57009e-16 0.707107 0.707107
    outer loop
      vertex -3 0.809017 0.587785
      vertex -0.809017 0.587785 0.809017
      vertex -0.587785 0.809017 0.587785
    endloop
  endfacet
  facet normal -1.97843e-16 0.453992 0.891006
    outer loop
      vertex -3 0.587785 0.809017
      vertex -3 0.309017 0.951057
      vertex -0.951057 0.309017 0.951057
    endloop
  endfacet
  facet normal -1.97843e-16 0.453992 0.891006
    outer loop
      vertex -0.809017 0.587785 0.809017
      vertex -3 0.587785 0.809017
      vertex -0.951057 0.309017 0.951057
    endloop
  endfacet
  facet normal -0.891006 0.453992 0
    outer loop
      vertex -0.951057 0.309017 0.951057
      vertex -0.951057 0.309017 3
      vertex -0.809017 0.587785 0.809017
    endloop
  endfacet
  facet normal -0.891006 0.453992 0
    outer loop
      vertex -0.809017 0.587785 0.809017
      vertex -0.951057 0.309017 3
      vertex -0.809017 0.587785 3
    endloop
  endfacet
  facet normal -0.987689 0.156433 0
    outer loop
      vertex -1 0 1
      vertex -1 0 3
      vertex -0.951057 0.309017 0.951057
    endloop
  endfacet
  facet normal -0.987689 0.156433 0
    outer loop
      vertex -0.951057 0.309017 0.951057
      vertex -1 0 3
      vertex -0.951057 0.309017 3
    endloop
  endfacet
  facet normal -0.987689 -0.156433 0
    outer loop
      vertex -1 0 1
      vertex -0.951057 -0.309017 0.951057
      vertex -1 0 3
    endloop
  endfacet
  facet normal -0.987689 -0.156433 0
    outer loop
      vertex -1 0 3
      vertex -0.951057 -0.309017 0.951057
      vertex -0.951057 -0.309017 3
    endloop
  endfacet
  facet normal -0.891006 -0.453992 0
    outer loop
      vertex -0.951057 -0.309017 0.951057
      vertex -0.809017 -0.587785 0.809017
      vertex -0.951057 -0.309017 3
    endloop
  endfacet
  facet normal -0.891006 -0.453992 0
    outer loop
      vertex -0.951057 -0.309017 3
      vertex -0.809017 -0.587785 0.809017
      vertex -0.809017 -0.587785 3
    endloop
  endfacet
  facet normal -0.707107 -0.707107 0
    outer loop
      vertex -0.809017 -0.587785 3
      vertex -0.809017 -0.587785 0.809017
      vertex -0.587785 -0.809017 0.587785
    endloop
  endfacet
  facet normal -0.707107 -0.707107 0
    outer loop
      vertex -0.587785 -0.809017 3
      vertex -0.809017 -0.587785 3
      vertex -0.587785 -0.809017 0.587785
    endloop
  endfacet
  facet normal -0.453992 -0.891006 0
    outer loop
      vertex -0.587785 -0.809017 3
      vertex -0.587785 -0.809017 0.587785
      vertex -0.309017 -0.951057 0.309017
    endloop
  endfacet
  facet normal -0.453992 -0.891006 0
    outer loop
      vertex -0.309017 -0.951057 3
      vertex -0.587785 -0.809017 3
      vertex -0.309017 -0.951057 0.309017
    endloop
  endfacet
  facet normal -0.156433 -0.987689 0
    outer loop
      vertex -0.309017 -0.951057 3
      vertex -0.309017 -0.951057 0.309017
      vertex 0 -1 0
    endloop
  endfacet
  facet normal -0.156433 -0.987689 0
    outer loop
      vertex 0 -1 3
      vertex -0.309017 -0.951057 3
      vertex 0 -1 0
    endloop
  endfacet
  facet normal 0.156433 -0.987689 0
    outer loop
      vertex 0 -1 3
      vertex 0 -1 0
      vertex 0.309017 -0.951057 0.309017
    endloop
  endfacet
  facet normal 0.156433 -0.987689 0
    outer loop
      vertex 0.309017 -0.951057 3
      vertex 0 -1 3
      vertex 0.309017 -0.951057 0.309017
    endloop
  endfacet
  facet normal -3.47351e-17 -0.987689 0.156433
    outer loop
      vertex 0.309017 -0.951057 0.309017
      vertex 0 -1 0
      vertex 3 -1 6.66134e-16
    endloop
  endfacet
  facet normal -3.47351e-17 -0.987689 0.156433
    outer loop
      vertex 3 -0.951057 0.309017
      vertex 0.309017 -0.951057 0.309017
      vertex 3 -1 6.66134e-16
    endloop
  endfacet
  facet normal 3.47351e-17 -0.987689 -0.156433
    outer loop
      vertex 3 -1 6.66134e-16
      vertex 0 -1 0
      vertex 0.309017 -0.951057 -0.309017
    endloop
  endfacet
  facet normal 3.47351e-17 -0.987689 -0.156433
    outer loop
      vertex 3 -0.951057 -0.309017
      vertex 3 -1 6.66134e-16
      vertex 0.309017 -0.951057 -0.309017
    endloop
  endfacet
  facet normal 0.156433 -0.987689 0
    outer loop
      vertex 0 -1 0
      vertex 0 -1 -3
      vertex 0.309017 -0.951057 -3
    endloop
  endfacet
  facet normal 0.156433 -0.987689 0
    outer loop
      vertex 0.309017 -0.951057 -0.309017
      vertex 0 -1 0
      vertex 0.309017 -0.951057 -3
    endloop
  endfacet
  facet normal -0.156433 -0.987689 0
    outer loop
      vertex -0.309017 -0.951057 -0.309017
      vertex -0.309017 -0.951057 -3
      vertex 0 -1 -3
    endloop
  endfacet
  facet normal -0.156433 -0.987689 0
    outer loop
      vertex 0 -1 0
      vertex -0.309017 -0.951057 -0.309017
      vertex 0 -1 -3
    endloop
  endfacet
  facet normal -0.453992 -0.891006 0
    outer loop
      vertex -0.587785 -0.809017 -0.587785
      vertex -0.587785 -0.809017 -3
      vertex -0.309017 -0.951057 -3
    endloop
  endfacet
  facet normal -0.453992 -0.891006 0
    outer loop
      vertex -0.309017 -0.951057 -0.309017
      vertex -0.587785 -0.809017 -0.587785
      vertex -0.309017 -0.951057 -3
    endloop
  endfacet
  facet normal -0.707107 -0.707107 0
    outer loop
      vertex -0.809017 -0.587785 -0.809017
      vertex -0.809017 -0.587785 -3
      vertex -0.587785 -0.809017 -3
    endloop
  endfacet
  facet normal -0.707107 -0.707107 0
    outer loop
      vertex -0.587785 -0.809017 -0.587785
      vertex -0.809017 -0.587785 -0.809017
      vertex -0.587785 -0.809017 -3
    endloop
  endfacet
  facet normal -0.891006 -0.453992 0
    outer loop
      vertex -0.951057 -0.309017 -3
      vertex -0.809017 -0.587785 -3
      vertex -0.951057 -0.309017 -0.951057
    endloop
  endfacet
  facet normal -0.891006 -0.453992 0
    outer loop
      vertex -0.951057 -0.309017 -0.951057
      vertex -0.809017 -0.587785 -3
      vertex -0.809017 -0.587785 -0.809017
    endloop
  endfacet
  facet normal -0.987689 -0.156433 0
    outer loop
      vertex -1 0 -3
      vertex -0.951057 -0.309017 -3
      vertex -1 0 -1
    endloop
  endfacet
  facet normal -0.987689 -0.156433 0
    outer loop
      vertex -1 0 -1
      vertex -0.951057 -0.309017 -3
      vertex -0.951057 -0.309017 -0.951057
    endloop
  endfacet
  facet normal -0.987689 0.156433 0
    outer loop
      vertex -1 0 -3
      vertex -1 0 -1
      vertex -0.951057 0.309017 -3
    endloop
  endfacet
  facet normal -0.987689 0.156433 0
    outer loop
      vertex -0.951057 0.309017 -3
      vertex -1 0 -1
      vertex -0.951057 0.309017 -0.951057
    endloop
  endfacet
  facet normal -0.891006 0.453992 0
    outer loop
      vertex -0.951057 0.309017 -3
      vertex -0.951057 0.309017 -0.951057
      vertex -0.809017 0.587785 -3
    endloop
  endfacet
  facet normal -0.891006 0.453992 0
    outer loop
      vertex -0.809017 0.587785 -3
      vertex -0.951057 0.309017 -0.951057
      vertex -0.809017 0.587785 -0.809017
    endloop
  endfacet
  facet normal -0.707107 0.707107 0
    outer loop
      vertex -0.809017 0.587785 -3
      vertex -0.809017 0.587785 -0.809017
      vertex -0.587785 0.809017 -3
    endloop
  endfacet
  facet normal -0.707107 0.707107 0
    outer loop
      vertex -0.587785 0.809017 -3
      vertex -0.809017 0.587785 -0.809017
      vertex -0.587785 0.809017 -0.587785
    endloop
  endfacet
  facet normal -0.453992 0.891006 0
    outer loop
      vertex -0.587785 0.809017 -3
      vertex -0.587785 0.809017 -0.587785
      vertex -0.309017 0.951057 -3
    endloop
  endfacet
  facet normal -0.453992 0.891006 0
    outer loop
      vertex -0.309017 0.951057 -3
      vertex -0.587785 0.809017 -0.587785
      vertex -0.309017 0.951057 -0.309017
    endloop
  endfacet
  facet normal -0.156433 0.987689 0
    outer loop
      vertex -0.309017 0.951057 -3
      vertex -0.309017 0.951057 -0.309017
      vertex 0 1 -3
    endloop
  endfacet
  facet normal -0.156433 0.987689 0
    outer loop
      vertex 0 1 -3
      vertex -0.309017 0.951057 -0.309017
      vertex 0 1 0
    endloop
  endfacet
  facet normal 0.156433 0.987689 0
    outer loop
      vertex 0 1 -3
      vertex 0 1 0
      vertex 0.309017 0.951057 -3
    endloop
  endfacet
  facet normal 0.156433 0.987689 0
    outer loop
      vertex 0.309017 0.951057 -3
      vertex 0 1 0
      vertex 0.309017 0.951057 -0.309017
    endloop
  endfacet
  facet normal 3.47351e-17 0.987689 -0.156433
    outer loop
      vertex 0 1 0
      vertex 3 1 6.66134e-16
      vertex 0.309017 0.951057 -0.309017
    endloop
  endfacet
  facet normal 3.47351e-17 0.987689 -0.156433
    outer loop
      vertex 0.309017 0.951057 -0.309017
      vertex 3 1 6.66134e-16
      vertex 3 0.951057 -0.309017
    endloop
  endfacet
  facet normal -3.47351e-17 0.987689 0.156433
    outer loop
      vertex 0 1 0
      vertex 0.309017 0.951057 0.309017
      vertex 3 1 6.66134e-16
    endloop
  endfacet
  facet normal -3.47351e-17 0.987689 0.156433
    outer loop
      vertex 3 1 6.66134e-16
      vertex 0.309017 0.951057 0.309017
      vertex 3 0.951057 0.309017
    endloop
  endfacet
  facet normal 0.156433 0.987689 0
    outer loop
      vertex 0 1 0
      vertex 0 1 3
      vertex 0.309017 0.951057 0.309017
    endloop
  endfacet
  facet normal 0.156433 0.987689 0
    outer loop
      vertex 0.309017 0.951057 0.309017
      vertex 0 1 3
      vertex 0.309017 0.951057 3
    endloop
  endfacet
  facet normal -0.156433 0.987689 0
    outer loop
      vertex -0.309017 0.951057 0.309017
      vertex -0.309017 0.951057 3
      vertex 0 1 0
    endloop
  endfacet
  facet normal -0.156433 0.987689 0
    outer loop
      vertex 0 1 0
      vertex -0.309017 0.951057 3
      vertex 0 1 3
    endloop
  endfacet
  facet normal -0.453992 0.891006 0
    outer loop
      vertex -0.587785 0.809017 0.587785
      vertex -0.587785 0.809017 3
      vertex -0.309017 0.951057 0.309017
    endloop
  endfacet
  facet normal -0.453992 0.891006 0
    outer loop
      vertex -0.309017 0.951057 0.309017
      vertex -0.587785 0.809017 3
      vertex -0.309017 0.951057 3
    endloop
  endfacet
  facet normal -0.707107 0.707107 0
    outer loop
      vertex -0.809017 0.587785 0.809017
      vertex -0.809017 0.587785 3
      vertex -0.587785 0.809017 0.587785
    endloop
  endfacet
  facet normal -0.707107 0.707107 0
    outer loop
      vertex -0.587785 0.809017 0.587785
      vertex -0.809017 0.587785 3
      vertex -0.587785 0.809017 3
    endloop
  endfacet
  facet normal 0 0 1
    outer loop
      vertex -0.951057 0.309017 3
      vertex -1 0 3
      vertex -0.951057 -0.309017 3
    endloop
  endfacet
  facet normal 0 0 1
    outer loop
      vertex -0.587785 -0.809017 3
      vertex -0.951057 0.309017 3
      vertex -0.809017 -0.587785 3
    endloop
  endfacet
  facet normal 0 0 1
    outer loop
      vertex -0.809017 -0.587785 3
      vertex -0.951057 0.309017 3
      vertex -0.951057 -0.309017 3
    endloop
  endfacet
  facet normal 0 0 1
    outer loop
      vertex -0.309017 -0.951057 3
      vertex -0.951057 0.309017 3
      vertex -0.587785 -0.809017 3
    endloop
  endfacet
  facet normal 0 0 1
    outer loop
      vertex 0 -1 3
      vertex -0.951057 0.309017 3
      vertex -0.309017 -0.951057 3
    endloop
  endfacet
  facet normal 0 0 1
    outer loop
      vertex 0.309017 -0.951057 3
      vertex -0.951057 0.309017 3
      vertex 0 -1 3
    endloop
  endfacet
  facet normal 0 0 1
    outer loop
      vertex 0.587785 -0.809017 3
      vertex -0.951057 0.309017 3
      vertex 0.309017 -0.951057 3
    endloop
  endfacet
  facet normal 0 0 1
    outer loop
      vertex 0.809017 -0.587785 3
      vertex -0.951057 0.309017 3
      vertex 0.587785 -0.809017 3
    endloop
  endfacet
  facet normal 0 0 1
    outer loop
      vertex 0.951057 -0.309017 3
      vertex -0.951057 0.309017 3
      vertex 0.809017 -0.587785 3
    endloop
  endfacet
  facet normal 0 0 1
    outer loop
      vertex 1 0 3
      vertex -0.951057 0.309017 3
      vertex 0.951057 -0.309017 3
    endloop
  endfacet
  facet normal 0 0 1
    outer loop
      vertex 0.951057 0.309017 3
      vertex -0.951057 0.309017 3
      vertex 1 0 3
    endloop
  endfacet
  facet normal 0 0 1
    outer loop
      vertex 0.809017 0.587785 3
      vertex -0.951057 0.309017 3
      vertex 0.951057 0.309017 3
    endloop
  endfacet
  facet normal 0 0 1
    outer loop
      vertex 0.587785 0.809017 3
      vertex -0.951057 0.309017 3
      vertex 0.809017 0.587785 3
    endloop
  endfacet
  facet normal 0 0 1
    outer loop
      vertex 0.309017 0.951057 3
      vertex -0.951057 0.309017 3
      vertex 0.587785 0.809017 3
    endloop
  endfacet
  facet normal 0 0 1
    outer loop
      vertex 0 1 3
      vertex -0.951057 0.309017 3
      vertex 0.309017 0.951057 3
    endloop
  endfacet
  facet normal 0 0 1
    outer loop
      vertex -0.309017 0.951057 3
      vertex -0.951057 0.309017 3
      vertex 0 1 3
    endloop
  endfacet
  facet normal 0 0 1
    outer loop
      vertex -0.587785 0.809017 3
      vertex -0.951057 0.309017 3
      vertex -0.309017 0.951057 3
    endloop
  endfacet
  facet normal 0 0 1
    outer loop
      vertex -0.809017 0.587785 3
      vertex -0.951057 0.309017 3
      vertex -0.587785 0.809017 3
    endloop
  endfacet
  facet normal 0.453992 -0.891006 0
    outer loop
      vertex 0.309017 -0.951057 3
      vertex 0.309017 -0.951057 0.309017
      vertex 0.587785 -0.809017 0.587785
    endloop
  endfacet
  facet normal 0.453992 -0.891006 0
    outer loop
      vertex 0.587785 -0.809017 3
      vertex 0.309017 -0.951057 3
      vertex 0.587785 -0.809017 0.587785
    endloop
  endfacet
  facet normal -1.00806e-16 -0.891006 0.453992
    outer loop
      vertex 0.587785 -0.809017 0.587785
      vertex 0.309017 -0.951057 0.309017
      vertex 3 -0.951057 0.309017
    endloop
  endfacet
  facet normal -1.00806e-16 -0.891006 0.453992
    outer loop
      vertex 3 -0.809017 0.587785
      vertex 0.587785 -0.809017 0.587785
      vertex 3 -0.951057 0.309017
    endloop
  endfacet
  facet normal 1 0 2.22045e-16
    outer loop
      vertex 3 0.309017 0.951057
      vertex 3 0 1
      vertex 3 -0.309017 0.951057
    endloop
  endfacet
  facet normal 1 0 2.22045e-16
    outer loop
      vertex 3 -0.809017 0.587785
      vertex 3 0.309017 0.951057
      vertex 3 -0.587785 0.809017
    endloop
  endfacet
  facet normal 1 0 2.22045e-16
    outer loop
      vertex 3 -0.587785 0.809017
      vertex 3 0.309017 0.951057
      vertex 3 -0.309017 0.951057
    endloop
  endfacet
  facet normal 1 0 2.22045e-16
    outer loop
      vertex 3 -0.951057 0.309017
      vertex 3 0.309017 0.951057
      vertex 3 -0.809017 0.587785
    endloop
  endfacet
  facet normal 1 0 2.22045e-16
    outer loop
      vertex 3 -1 6.66134e-16
      vertex 3 0.309017 0.951057
      vertex 3 -0.951057 0.309017
    endloop
  endfacet
  facet normal 1 0 2.22045e-16
    outer loop
      vertex 3 -0.951057 -0.309017
      vertex 3 0.309017 0.951057
      vertex 3 -1 6.66134e-16
    endloop
  endfacet
  facet normal 1 0 2.22045e-16
    outer loop
      vertex 3 -0.809017 -0.587785
      vertex 3 0.309017 0.951057
      vertex 3 -0.951057 -0.309017
    endloop
  endfacet
  facet normal 1 0 2.22045e-16
    outer loop
      vertex 3 -0.587785 -0.809017
      vertex 3 0.309017 0.951057
      vertex 3 -0.809017 -0.587785
    endloop
  endfacet
  facet normal 1 0 2.22045e-16
    outer loop
      vertex 3 -0.309017 -0.951057
      vertex 3 0.309017 0.951057
      vertex 3 -0.587785 -0.809017
    endloop
  endfacet
  facet normal 1 0 2.22045e-16
    outer loop
      vertex 3 0 -1
      vertex 3 0.309017 0.951057
      vertex 3 -0.309017 -0.951057
    endloop
  endfacet
  facet normal 1 0 2.22045e-16
    outer loop
      vertex 3 0.309017 -0.951057
      vertex 3 0.309017 0.951057
      vertex 3 0 -1
    endloop
  endfacet
  facet normal 1 0 2.22045e-16
    outer loop
      vertex 3 0.587785 -0.809017
      vertex 3 0.309017 0.951057
      vertex 3 0.309017 -0.951057
    endloop
  endfacet
  facet normal 1 0 2.22045e-16
    outer loop
      vertex 3 0.809017 -0.587785
      vertex 3 0.309017 0.951057
      vertex 3 0.587785 -0.809017
    endloop
  endfacet
  facet normal 1 0 2.22045e-16
    outer loop
      vertex 3 0.951057 -0.309017
      vertex 3 0.309017 0.951057
      vertex 3 0.809017 -0.587785
    endloop
  endfacet
  facet normal 1 0 2.22045e-16
    outer loop
      vertex 3 1 6.66134e-16
      vertex 3 0.309017 0.951057
      vertex 3 0.951057 -0.309017
    endloop
  endfacet
  facet normal 1 0 2.22045e-16
    outer loop
      vertex 3 0.951057 0.309017
      vertex 3 0.309017 0.951057
      vertex 3 1 6.66134e-16
    endloop
  endfacet
  facet normal 1 0 2.22045e-16
    outer loop
      vertex 3 0.809017 0.587785
      vertex 3 0.309017 0.951057
      vertex 3 0.951057 0.309017
    endloop
  endfacet
  facet normal 1 0 2.22045e-16
    outer loop
      vertex 3 0.587785 0.809017
      vertex 3 0.309017 0.951057
      vertex 3 0.809017 0.587785
    endloop
  endfacet
  facet normal 1.00806e-16 -0.891006 -0.453992
    outer loop
      vertex 3 -0.951057 -0.309017
      vertex 0.309017 -0.951057 -0.309017
      vertex 0.587785 -0.809017 -0.587785
    endloop
  endfacet
  facet normal 1.00806e-16 -0.891006 -0.453992
    outer loop
      vertex 3 -0.809017 -0.587785
      vertex 3 -0.951057 -0.309017
      vertex 0.587785 -0.809017 -0.587785
    endloop
  endfacet
  facet normal 0.453992 -0.891006 0
    outer loop
      vertex 0.309017 -0.951057 -0.309017
      vertex 0.309017 -0.951057 -3
      vertex 0.587785 -0.809017 -3
    endloop
  endfacet
  facet normal 0.453992 -0.891006 0
    outer loop
      vertex 0.587785 -0.809017 -0.587785
      vertex 0.309017 -0.951057 -0.309017
      vertex 0.587785 -0.809017 -3
    endloop
  endfacet
  facet normal 0 0 -1
    outer loop
      vertex -1 0 -3
      vertex -0.951057 0.309017 -3
      vertex -0.951057 -0.309017 -3
    endloop
  endfacet
  facet normal 0 0 -1
    outer loop
      vertex -0.951057 -0.309017 -3
      vertex -0.951057 0.309017 -3
      vertex -0.809017 0.587785 -3
    endloop
  endfacet
  facet normal 0 0 -1
    outer loop
      vertex -0.951057 -0.309017 -3
      vertex -0.809017 0.587785 -3
      vertex -0.587785 0.809017 -3
    endloop
  endfacet
  facet normal 0 0 -1
    outer loop
      vertex -0.951057 -0.309017 -3
      vertex -0.587785 0.809017 -3
      vertex -0.309017 0.951057 -3
    endloop
  endfacet
  facet normal 0 0 -1
    outer loop
      vertex -0.951057 -0.309017 -3
      vertex -0.309017 0.951057 -3
      vertex 0 1 -3
    endloop
  endfacet
  facet normal 0 0 -1
    outer loop
      vertex -0.951057 -0.309017 -3
      vertex 0 1 -3
      vertex 0.309017 0.951057 -3
    endloop
  endfacet
  facet normal 0 0 -1
    outer loop
      vertex -0.951057 -0.309017 -3
      vertex 0.309017 0.951057 -3
      vertex 0.587785 0.809017 -3
    endloop
  endfacet
  facet normal 0 0 -1
    outer loop
      vertex -0.951057 -0.309017 -3
      vertex 0.587785 0.809017 -3
      vertex 0.809017 0.587785 -3
    endloop
  endfacet
  facet normal 0 0 -1
    outer loop
      vertex -0.951057 -0.309017 -3
      vertex 0.809017 0.587785 -3
      vertex 0.951057 0.309017 -3
    endloop
  endfacet
  facet normal 0 0 -1
    outer loop
      vertex -0.951057 -0.309017 -3
      vertex 0.951057 0.309017 -3
      vertex 1 0 -3
    endloop
  endfacet
  facet normal 0 0 -1
    outer loop
      vertex -0.951057 -0.309017 -3
      vertex 1 0 -3
      vertex 0.951057 -0.309017 -3
    endloop
  endfacet
  facet normal 0 0 -1
    outer loop
      vertex -0.951057 -0.309017 -3
      vertex 0.951057 -0.309017 -3
      vertex 0.809017 -0.587785 -3
    endloop
  endfacet
  facet normal 0 0 -1
    outer loop
      vertex -0.951057 -0.309017 -3
      vertex 0.809017 -0.587785 -3
      vertex 0.587785 -0.809017 -3
    endloop
  endfacet
  facet normal 0 0 -1
    outer loop
      vertex -0.951057 -0.309017 -3
      vertex 0.587785 -0.809017 -3
      vertex 0.309017 -0.951057 -3
    endloop
  endfacet
  facet normal 0 0 -1
    outer loop
      vertex -0.951057 -0.309017 -3
      vertex 0.309017 -0.951057 -3
      vertex 0 -1 -3
    endloop
  endfacet
  facet normal 0 0 -1
    outer loop
      vertex -0.951057 -0.309017 -3
      vertex 0 -1 -3
      vertex -0.309017 -0.951057 -3
    endloop
  endfacet
  facet normal 0 0 -1
    outer loop
      vertex -0.951057 -0.309017 -3
      vertex -0.309017 -0.951057 -3
      vertex -0.587785 -0.809017 -3
    endloop
  endfacet
  facet normal 0 0 -1
    outer loop
      vertex -0.951057 -0.309017 -3
      vertex -0.587785 -0.809017 -3
      vertex -0.809017 -0.587785 -3
    endloop
  endfacet
  facet normal 0.453992 0.891006 0
    outer loop
      vertex 0.309017 0.951057 -3
      vertex 0.309017 0.951057 -0.309017
      vertex 0.587785 0.809017 -3
    endloop
  endfacet
  facet normal 0.453992 0.891006 0
    outer loop
      vertex 0.587785 0.809017 -3
      vertex 0.309017 0.951057 -0.309017
      vertex 0.587785 0.809017 -0.587785
    endloop
  endfacet
  facet normal 1.00806e-16 0.891006 -0.453992
    outer loop
      vertex 0.309017 0.951057 -0.309017
      vertex 3 0.951057 -0.309017
      vertex 0.587785 0.809017 -0.587785
    endloop
  endfacet
  facet normal 1.00806e-16 0.891006 -0.453992
    outer loop
      vertex 0.587785 0.809017 -0.587785
      vertex 3 0.951057 -0.309017
      vertex 3 0.809017 -0.587785
    endloop
  endfacet
  facet normal -1.00806e-16 0.891006 0.453992
    outer loop
      vertex 0.309017 0.951057 0.309017
      vertex 0.587785 0.809017 0.587785
      vertex 3 0.951057 0.309017
    endloop
  endfacet
  facet normal -1.00806e-16 0.891006 0.453992
    outer loop
      vertex 3 0.951057 0.309017
      vertex 0.587785 0.809017 0.587785
      vertex 3 0.809017 0.587785
    endloop
  endfacet
  facet normal 0.453992 0.891006 0
    outer loop
      vertex 0.309017 0.951057 0.309017
      vertex 0.309017 0.951057 3
      vertex 0.587785 0.809017 0.587785
    endloop
  endfacet
  facet normal 0.453992 0.891006 0
    outer loop
      vertex 0.587785 0.809017 0.587785
      vertex 0.309017 0.951057 3
      vertex 0.587785 0.809017 3
    endloop
  endfacet
  facet normal 0.707107 0.707107 0
    outer loop
      vertex 0.587785 0.809017 0.587785
      vertex 0.587785 0.809017 3
      vertex 0.809017 0.587785 0.809017
    endloop
  endfacet
  facet normal 0.707107 0.707107 0
    outer loop
      vertex 0.809017 0.587785 0.809017
      vertex 0.587785 0.809017 3
      vertex 0.809017 0.587785 3
    endloop
  endfacet
  facet normal 0.891006 0.453992 0
    outer loop
      vertex 0.951057 0.309017 0.951057
      vertex 0.809017 0.587785 0.809017
      vertex 0.809017 0.587785 3
    endloop
  endfacet
  facet normal 0.891006 0.453992 0
    outer loop
      vertex 0.951057 0.309017 3
      vertex 0.951057 0.309017 0.951057
      vertex 0.809017 0.587785 3
    endloop
  endfacet
  facet normal 0.987689 0.156433 0
    outer loop
      vertex 1 0 1
      vertex 0.951057 0.309017 0.951057
      vertex 0.951057 0.309017 3
    endloop
  endfacet
  facet normal 0.987689 0.156433 0
    outer loop
      vertex 1 0 3
      vertex 1 0 1
      vertex 0.951057 0.309017 3
    endloop
  endfacet
  facet normal 0.987689 -0.156433 0
    outer loop
      vertex 0.951057 -0.309017 3
      vertex 0.951057 -0.309017 0.951057
      vertex 1 0 1
    endloop
  endfacet
  facet normal 0.987689 -0.156433 0
    outer loop
      vertex 1 0 3
      vertex 0.951057 -0.309017 3
      vertex 1 0 1
    endloop
  endfacet
  facet normal 0.891006 -0.453992 0
    outer loop
      vertex 0.809017 -0.587785 3
      vertex 0.809017 -0.587785 0.809017
      vertex 0.951057 -0.309017 0.951057
    endloop
  endfacet
  facet normal 0.891006 -0.453992 0
    outer loop
      vertex 0.951057 -0.309017 3
      vertex 0.809017 -0.587785 3
      vertex 0.951057 -0.309017 0.951057
    endloop
  endfacet
  facet normal 0.707107 -0.707107 0
    outer loop
      vertex 0.587785 -0.809017 3
      vertex 0.587785 -0.809017 0.587785
      vertex 0.809017 -0.587785 0.809017
    endloop
  endfacet
  facet normal 0.707107 -0.707107 0
    outer loop
      vertex 0.809017 -0.587785 3
      vertex 0.587785 -0.809017 3
      vertex 0.809017 -0.587785 0.809017
    endloop
  endfacet
  facet normal -1.57009e-16 -0.707107 0.707107
    outer loop
      vertex 0.809017 -0.587785 0.809017
      vertex 0.587785 -0.809017 0.587785
      vertex 3 -0.809017 0.587785
    endloop
  endfacet
  facet normal -1.57009e-16 -0.707107 0.707107
    outer loop
      vertex 3 -0.587785 0.809017
      vertex 0.809017 -0.587785 0.809017
      vertex 3 -0.809017 0.587785
    endloop
  endfacet
  facet normal -2.19311e-16 0.156433 0.987689
    outer loop
      vertex 3 0.309017 0.951057
      vertex 0.951057 0.309017 0.951057
      vertex 1 0 1
    endloop
  endfacet
  facet normal -2.19311e-16 0.156433 0.987689
    outer loop
      vertex 3 0 1
      vertex 3 0.309017 0.951057
      vertex 1 0 1
    endloop
  endfacet
  facet normal -1.97843e-16 0.453992 0.891006
    outer loop
      vertex 3 0.587785 0.809017
      vertex 0.809017 0.587785 0.809017
      vertex 0.951057 0.309017 0.951057
    endloop
  endfacet
  facet normal -1.97843e-16 0.453992 0.891006
    outer loop
      vertex 3 0.309017 0.951057
      vertex 3 0.587785 0.809017
      vertex 0.951057 0.309017 0.951057
    endloop
  endfacet
  facet normal -1.57009e-16 0.707107 0.707107
    outer loop
      vertex 0.587785 0.809017 0.587785
      vertex 0.809017 0.587785 0.809017
      vertex 3 0.809017 0.587785
    endloop
  endfacet
  facet normal -1.57009e-16 0.707107 0.707107
    outer loop
      vertex 3 0.809017 0.587785
      vertex 0.809017 0.587785 0.809017
      vertex 3 0.587785 0.809017
    endloop
  endfacet
  facet normal 1.57009e-16 0.707107 -0.707107
    outer loop
      vertex 0.587785 0.809017 -0.587785
      vertex 3 0.809017 -0.587785
      vertex 0.809017 0.587785 -0.809017
    endloop
  endfacet
  facet normal 1.57009e-16 0.707107 -0.707107
    outer loop
      vertex 0.809017 0.587785 -0.809017
      vertex 3 0.809017 -0.587785
      vertex 3 0.587785 -0.809017
    endloop
  endfacet
  facet normal 1.97843e-16 0.453992 -0.891006
    outer loop
      vertex 0.809017 0.587785 -0.809017
      vertex 3 0.587785 -0.809017
      vertex 0.951057 0.309017 -0.951057
    endloop
  endfacet
  facet normal 1.97843e-16 0.453992 -0.891006
    outer loop
      vertex 0.951057 0.309017 -0.951057
      vertex 3 0.587785 -0.809017
      vertex 3 0.309017 -0.951057
    endloop
  endfacet
  facet normal 2.19311e-16 0.156433 -0.987689
    outer loop
      vertex 0.951057 0.309017 -0.951057
      vertex 3 0.309017 -0.951057
      vertex 1 0 -1
    endloop
  endfacet
  facet normal 2.19311e-16 0.156433 -0.987689
    outer loop
      vertex 1 0 -1
      vertex 3 0.309017 -0.951057
      vertex 3 0 -1
    endloop
  endfacet
  facet normal 2.19311e-16 -0.156433 -0.987689
    outer loop
      vertex 0.951057 -0.309017 -0.951057
      vertex 1 0 -1
      vertex 3 -0.309017 -0.951057
    endloop
  endfacet
  facet normal 2.19311e-16 -0.156433 -0.987689
    outer loop
      vertex 3 -0.309017 -0.951057
      vertex 1 0 -1
      vertex 3 0 -1
    endloop
  endfacet
  facet normal 1.97843e-16 -0.453992 -0.891006
    outer loop
      vertex 0.809017 -0.587785 -0.809017
      vertex 0.951057 -0.309017 -0.951057
      vertex 3 -0.587785 -0.809017
    endloop
  endfacet
  facet normal 1.97843e-16 -0.453992 -0.891006
    outer loop
      vertex 3 -0.587785 -0.809017
      vertex 0.951057 -0.309017 -0.951057
      vertex 3 -0.309017 -0.951057
    endloop
  endfacet
  facet normal 1.57009e-16 -0.707107 -0.707107
    outer loop
      vertex 3 -0.809017 -0.587785
      vertex 0.587785 -0.809017 -0.587785
      vertex 0.809017 -0.587785 -0.809017
    endloop
  endfacet
  facet normal 1.57009e-16 -0.707107 -0.707107
    outer loop
      vertex 3 -0.587785 -0.809017
      vertex 3 -0.809017 -0.587785
      vertex 0.809017 -0.587785 -0.809017
    endloop
  endfacet
  facet normal -1.97843e-16 -0.453992 0.891006
    outer loop
      vertex 0.951057 -0.309017 0.951057
      vertex 0.809017 -0.587785 0.809017
      vertex 3 -0.587785 0.809017
    endloop
  endfacet
  facet normal -1.97843e-16 -0.453992 0.891006
    outer loop
      vertex 3 -0.309017 0.951057
      vertex 0.951057 -0.309017 0.951057
      vertex 3 -0.587785 0.809017
    endloop
  endfacet
  facet normal -2.19311e-16 -0.156433 0.987689
    outer loop
      vertex 1 0 1
      vertex 0.951057 -0.309017 0.951057
      vertex 3 -0.309017 0.951057
    endloop
  endfacet
  facet normal -2.19311e-16 -0.156433 0.987689
    outer loop
      vertex 3 0 1
      vertex 1 0 1
      vertex 3 -0.309017 0.951057
    endloop
  endfacet
  facet normal 0.707107 -0.707107 0
    outer loop
      vertex 0.587785 -0.809017 -0.587785
      vertex 0.587785 -0.809017 -3
      vertex 0.809017 -0.587785 -3
    endloop
  endfacet
  facet normal 0.707107 -0.707107 0
    outer loop
      vertex 0.809017 -0.587785 -0.809017
      vertex 0.587785 -0.809017 -0.587785
      vertex 0.809017 -0.587785 -3
    endloop
  endfacet
  facet normal 0.891006 -0.453992 0
    outer loop
      vertex 0.809017 -0.587785 -0.809017
      vertex 0.809017 -0.587785 -3
      vertex 0.951057 -0.309017 -3
    endloop
  endfacet
  facet normal 0.891006 -0.453992 0
    outer loop
      vertex 0.951057 -0.309017 -0.951057
      vertex 0.809017 -0.587785 -0.809017
      vertex 0.951057 -0.309017 -3
    endloop
  endfacet
  facet normal 0.987689 -0.156433 0
    outer loop
      vertex 0.951057 -0.309017 -0.951057
      vertex 0.951057 -0.309017 -3
      vertex 1 0 -3
    endloop
  endfacet
  facet normal 0.987689 -0.156433 0
    outer loop
      vertex 1 0 -1
      vertex 0.951057 -0.309017 -0.951057
      vertex 1 0 -3
    endloop
  endfacet
  facet normal 0.987689 0.156433 0
    outer loop
      vertex 1 0 -3
      vertex 0.951057 0.309017 -3
      vertex 0.951057 0.309017 -0.951057
    endloop
  endfacet
  facet normal 0.987689 0.156433 0
    outer loop
      vertex 1 0 -1
      vertex 1 0 -3
      vertex 0.951057 0.309017 -0.951057
    endloop
  endfacet
  facet normal 0.891006 0.453992 0
    outer loop
      vertex 0.951057 0.309017 -3
      vertex 0.809017 0.587785 -3
      vertex 0.809017 0.587785 -0.809017
    endloop
  endfacet
  facet normal 0.891006 0.453992 0
    outer loop
      vertex 0.951057 0.309017 -0.951057
      vertex 0.951057 0.309017 -3
      vertex 0.809017 0.587785 -0.809017
    endloop
  endfacet
  facet normal 0.707107 0.707107 0
    outer loop
      vertex 0.587785 0.809017 -3
      vertex 0.587785 0.809017 -0.587785
      vertex 0.809017 0.587785 -3
    endloop
  endfacet
  facet normal 0.707107 0.707107 0
    outer loop
      vertex 0.809017 0.587785 -3
      vertex 0.587785 0.809017 -0.587785
      vertex 0.809017 0.587785 -0.809017
    endloop
  endfacet
endsolid OpenSCAD_Model
